<svg width="60" height="60" viewBox="0 0 60 60" fill="none" xmlns="http://www.w3.org/2000/svg">
<path fill-rule="evenodd" clip-rule="evenodd" d="M51.8647 0.0551758C55.8488 0.0551758 59.0832 3.28972 59.0832 7.27365V51.9194C59.0832 55.9034 55.8487 59.1379 51.8647 59.1379H7.21897C3.23504 59.1379 0.000488281 55.9034 0.000488281 51.9194V7.27365C0.000488281 3.28972 3.23492 0.0551758 7.21897 0.0551758H51.8647V0.0551758ZM22.5626 49.0458C38.2494 49.0458 46.8267 36.0473 46.8267 24.7818C46.8267 24.4104 46.8267 24.039 46.809 23.6853C48.4714 22.4827 49.9216 20.9795 51.0712 19.264C49.5502 19.9361 47.9055 20.3959 46.1724 20.6081C47.9409 19.5469 49.285 17.8845 49.9216 15.8861C48.277 16.8588 46.4553 17.5663 44.51 17.9553C42.9536 16.2929 40.743 15.2671 38.2848 15.2671C33.5805 15.2671 29.7605 19.0872 29.7605 23.7914C29.7605 24.4635 29.8313 25.1178 29.9904 25.7368C22.8986 25.3831 16.6204 21.9876 12.4113 16.8235C11.6862 18.0791 11.2617 19.5469 11.2617 21.1033C11.2617 24.0567 12.765 26.6741 15.064 28.1951C13.6669 28.1596 12.3582 27.7706 11.2087 27.1339V27.24C11.2087 31.3784 14.1445 34.8093 18.0529 35.6051C17.3455 35.7997 16.5851 35.9058 15.8069 35.9058C15.2586 35.9058 14.7281 35.8527 14.1975 35.7466C15.2764 39.1422 18.4243 41.6004 22.1558 41.6711C19.2378 43.9526 15.5593 45.3143 11.5625 45.3143C10.8728 45.3143 10.2007 45.279 9.52862 45.1905C13.2602 47.6311 17.7522 49.0458 22.5626 49.0458Z" fill="#0FE59D"/>
</svg>
